# Blender 4.0.2
# www.blender.org
mtllib plo.mtl
o Плоскость
v 0.000000 1.500000 1.400000
v -1.400000 1.500000 0.000000
v -0.362347 1.500000 1.352296
v -0.700000 1.500000 1.212435
v -0.989949 1.500000 0.989949
v -1.212435 1.500000 0.700000
v -1.352296 1.500000 0.362347
v 1.400000 1.500000 0.000000
v 0.000000 1.500000 1.400000
v 1.352296 1.500000 0.362347
v 1.212435 1.500000 0.700000
v 0.989949 1.500000 0.989949
v 0.700000 1.500000 1.212435
v 0.362347 1.500000 1.352296
v 0.000000 1.500000 -1.400000
v -1.400000 1.500000 0.000000
v -0.362347 1.500000 -1.352296
v -0.700000 1.500000 -1.212435
v -0.989949 1.500000 -0.989949
v -1.212435 1.500000 -0.700000
v -1.352296 1.500000 -0.362347
v 0.000000 1.500000 -1.400000
v 1.400000 1.500000 0.000000
v 0.362347 1.500000 -1.352296
v 0.700000 1.500000 -1.212435
v 0.989949 1.500000 -0.989949
v 1.212435 1.500000 -0.700000
v 1.352296 1.500000 -0.362347
vn -0.0000 1.0000 -0.0000
vt 0.000000 0.500000
vt 0.017037 0.370590
vt 0.017037 0.629409
vt 0.066987 0.250000
vt 0.146447 0.146447
vt 0.250000 0.066987
vt 0.370590 0.017037
vt 0.629409 0.017037
vt 0.750000 0.066987
vt 0.853553 0.146447
vt 0.933013 0.250000
vt 0.982963 0.370590
vt 0.982963 0.629409
vt 0.933013 0.750000
vt 0.853553 0.853553
vt 0.750000 0.933013
vt 0.629409 0.982963
vt 0.370590 0.982963
vt 0.250000 0.933013
vt 0.146447 0.853553
vt 0.066987 0.750000
vt 0.500000 1.000000
vt 1.000000 0.500000
vt 0.500000 0.000000
s 0
f 2/1/1 7/2/1 21/3/1
f 7/2/1 6/4/1 5/5/1
f 5/5/1 4/6/1 3/7/1
f 7/2/1 5/5/1 3/7/1
f 14/8/1 13/9/1 12/10/1
f 12/10/1 11/11/1 10/12/1
f 14/8/1 12/10/1 10/12/1
f 28/13/1 27/14/1 26/15/1
f 26/15/1 25/16/1 24/17/1
f 28/13/1 26/15/1 24/17/1
f 17/18/1 18/19/1 19/20/1
f 19/20/1 20/21/1 21/3/1
f 17/18/1 19/20/1 21/3/1
f 24/17/1 22/22/1 15/22/1
f 15/22/1 17/18/1 21/3/1
f 24/17/1 15/22/1 21/3/1
f 28/13/1 24/17/1 21/3/1
f 10/12/1 8/23/1 23/23/1
f 23/23/1 28/13/1 21/3/1
f 10/12/1 23/23/1 21/3/1
f 14/8/1 10/12/1 21/3/1
f 3/7/1 1/24/1 9/24/1
f 9/24/1 14/8/1 21/3/1
f 3/7/1 9/24/1 21/3/1
f 7/2/1 3/7/1 21/3/1
f 21/3/1 16/1/1 2/1/1
