v 0.800000 -1.100000 -0.800000
v 0.800000 -0.100000 -0.800000
v 0.800000 -1.100000 -1.000000
v 0.800000 -0.100000 -1.000000
v 1.000000 -1.100000 -0.800000
v 1.000000 -0.100000 -0.800000
v 1.000000 -1.100000 -1.000000
v 1.000000 -0.100000 -1.000000
v 1.000000 0.100000 -1.000000
v 1.000000 -0.100000 -1.000000
v 1.000000 0.100000 1.000000
v 1.000000 -0.100000 1.000000
v -1.000000 0.100000 -1.000000
v -1.000000 -0.100000 -1.000000
v -1.000000 0.100000 1.000000
v -1.000000 -0.100000 1.000000
v -1.000000 -1.100000 -0.800000
v -1.000000 -0.100000 -0.800000
v -1.000000 -1.100000 -1.000000
v -1.000000 -0.100000 -1.000000
v -0.800000 -1.100000 -0.800000
v -0.800000 -0.100000 -0.800000
v -0.800000 -1.100000 -1.000000
v -0.800000 -0.100000 -1.000000
v -1.000000 -1.100000 1.000000
v -1.000000 -0.100000 1.000000
v -1.000000 -1.100000 0.800000
v -1.000000 -0.100000 0.800000
v -0.800000 -1.100000 1.000000
v -0.800000 -0.100000 1.000000
v -0.800000 -1.100000 0.800000
v -0.800000 -0.100000 0.800000
v 0.800000 -1.100000 1.000000
v 0.800000 -0.100000 1.000000
v 0.800000 -1.100000 0.800000
v 0.800000 -0.100000 0.800000
v 1.000000 -1.100000 1.000000
v 1.000000 -0.100000 1.000000
v 1.000000 -1.100000 0.800000
v 1.000000 -0.100000 0.800000
vn -1.0000 -0.0000 -0.0000
vn -0.0000 -0.0000 -1.0000
vn 1.0000 -0.0000 -0.0000
vn -0.0000 -0.0000 1.0000
vn -0.0000 -1.0000 -0.0000
vn -0.0000 1.0000 -0.0000
vt 0.500000 0.500000
vt 0.550000 0.550000
vt 0.500000 0.550000
vt 0.540000 0.000000
vt 0.590000 0.050000
vt 0.540000 0.050000
vt 0.333333 0.333333
vt 0.666667 -0.000000
vt 0.666667 0.333333
vt 0.333333 0.666667
vt 0.666667 0.666667
vt 0.000000 1.000000
vt 0.333333 1.000000
vt 0.540000 0.100000
vt 0.590000 0.100000
vt 0.000000 0.500000
vt 0.500000 0.000000
vt 0.500000 0.500000
vt 0.510000 -0.000000
vt 0.510000 0.500000
vt 0.520000 0.500000
vt 0.530000 0.000000
vt 0.530000 0.500000
vt 0.500000 1.000000
vt 0.510000 0.500000
vt 0.520000 -0.000000
vt 0.520000 0.500000
vt 0.530000 0.500000
vt 0.540000 0.000000
vt 0.540000 0.500000
vt 0.590000 0.000000
vt 0.640000 0.050000
vt 0.590000 0.150000
vt 0.540000 0.150000
vt 0.640000 0.100000
vt 0.590000 0.200000
vt 0.540000 0.200000
vt 0.640000 0.150000
vt 0.640000 0.150000
vt 0.640000 0.200000
vt 0.590000 0.250000
vt 0.540000 0.250000
vt 0.590000 0.300000
vt 0.540000 0.300000
vt 0.590000 0.350000
vt 0.540000 0.350000
vt 0.590000 0.400000
vt 0.540000 0.400000
vt 0.540000 0.450000
vt 0.590000 0.400000
vt 0.590000 0.450000
vt 0.600000 0.500000
vt 0.600000 0.550000
vt 0.550000 0.600000
vt 0.500000 0.600000
vt 0.640000 0.250000
vt 0.600000 0.600000
vt 0.640000 0.300000
vt 0.640000 0.350000
vt 0.640000 0.350000
vt 0.640000 0.400000
vt 0.550000 0.500000
vt 0.333333 0.000000
vt 0.333333 0.333333
vt 0.000000 0.666667
vt 0.000000 0.000000
vt 0.500000 -0.000000
vt 0.520000 0.000000
vt 0.510000 -0.000000
vt 0.530000 0.000000
vt 0.640000 0.000000
vt 0.590000 0.150000
vt 0.540000 0.400000
vt 0.590000 0.350000
f 2/1/1 3/2/1 1/3/1
f 4/4/2 7/5/2 3/6/2
f 8/7/3 5/8/3 7/9/3
f 6/10/4 1/9/4 5/11/4
f 7/12/5 1/10/5 3/13/5
f 4/14/6 6/5/6 8/15/6
f 13/16/6 11/17/6 9/1/6
f 11/18/4 16/19/4 12/20/4
f 15/21/1 14/22/1 16/23/1
f 10/12/5 16/1/5 14/24/5
f 9/25/3 12/26/3 10/27/3
f 13/28/2 10/29/2 14/30/2
f 18/31/1 19/32/1 17/5/1
f 20/14/2 23/33/2 19/34/2
f 24/5/3 21/35/3 23/15/3
f 22/34/4 17/36/4 21/37/4
f 23/33/5 17/35/5 19/38/5
f 20/36/6 22/39/6 24/40/6
f 26/37/1 27/41/1 25/42/1
f 28/42/2 31/43/2 27/44/2
f 32/44/3 29/45/3 31/46/3
f 30/46/4 25/47/4 29/48/4
f 31/49/5 25/50/5 27/51/5
f 28/2/6 30/52/6 32/53/6
f 34/3/1 35/54/1 33/55/1
f 36/36/2 39/56/2 35/41/2
f 40/2/3 37/57/3 39/54/3
f 38/41/4 33/58/4 37/43/4
f 39/45/5 33/58/5 35/59/5
f 36/50/6 38/60/6 40/61/6
f 2/1/1 4/62/1 3/2/1
f 4/4/2 8/31/2 7/5/2
f 8/7/3 6/63/3 5/8/3
f 6/10/4 2/64/4 1/9/4
f 7/12/5 5/65/5 1/10/5
f 4/14/6 2/6/6 6/5/6
f 13/16/6 15/66/6 11/17/6
f 11/18/4 15/67/4 16/19/4
f 15/21/1 13/68/1 14/22/1
f 10/12/5 12/16/5 16/1/5
f 9/25/3 11/69/3 12/26/3
f 13/28/2 9/70/2 10/29/2
f 18/31/1 20/71/1 19/32/1
f 20/14/2 24/15/2 23/33/2
f 24/5/3 22/32/3 21/35/3
f 22/34/4 18/33/4 17/36/4
f 23/33/5 21/15/5 17/35/5
f 20/36/6 18/72/6 22/39/6
f 26/37/1 28/36/1 27/41/1
f 28/42/2 32/41/2 31/43/2
f 32/44/3 30/43/3 29/45/3
f 30/46/4 26/45/4 25/47/4
f 31/49/5 29/73/5 25/50/5
f 28/2/6 26/62/6 30/52/6
f 34/3/1 36/2/1 35/54/1
f 36/36/2 40/40/2 39/56/2
f 40/2/3 38/53/3 37/57/3
f 38/41/4 34/56/4 33/58/4
f 39/45/5 37/43/5 33/58/5
f 36/50/6 34/74/6 38/60/6
